{"title":"The.Tenant.2010.LIMITED.480p.BRRip.XviD.Ac3.Feel-Free","uid":6604700,"size":985587316,"categoryP":"video","categoryS":"movies","magnet":"?xt=urn:btih:8147c9b4f257f9b0302dd948888c5d523dd74816&amp;dn=The.Tenant.2010.LIMITED.480p.BRRip.XviD.Ac3.Feel-Free&amp;tr=udp%3A%2F%2Ftracker.openbittorrent.com%3A80&amp;tr=udp%3A%2F%2Fopen.demonii.com%3A1337&amp;tr=udp%3A%2F%2Ftracker.coppersurfer.tk%3A6969&amp;tr=udp%3A%2F%2Fexodus.desync.com%3A6969","seeders":1,"leechers":0,"uploader":".BONE.","files":8,"time":1313348725,"description":"Genre:Action | Horror | Thriller\n Language:English\n &lt;a href=&quot;\nhttp://www.imdb.com/title/tt1258998/&quot; rel=&quot;nofollow&quot; target=&quot;_NEW&quot;&gt;\nhttp://www.imdb.com/title/tt1258998/&lt;/a&gt;\n\n Source:LIMITED.720p.BluRay.x264-PSYCHD Thanks!\n \nFormat : AVI\n Format/Info : Audio Video Interleave\n File size : 939 MiB\n Duration : 1h 35mn\n Overall bit rate : 1 375 Kbps\n \nVideo\n ID : 0\n Format : MPEG-4 Visual\n Format profile : Advanced Simple@L5\n Format settings, BVOP : Yes\n Format settings, QPel : No\n Format settings, GMC : No warppoints\n Format settings, Matrix : Default (H.263)\n Codec ID : XVID\n Codec ID/Hint : XviD\n Duration : 1h 35mn\n Bit rate : 918 Kbps\n Width : 640 pixels\n Height : 272 pixels\n Display aspect ratio : 2.35:1\n Frame rate : 23.976 fps\n Color space : YUV\n Chroma subsampling : 4:2:0\n Bit depth : 8 bits\n Scan type : Progressive\n Bits/(Pixel*Frame) : 0.220\n Stream size : 627 MiB (67%)\n Writing library : XviD 1.2.1 (UTC 2008-12-04)\n \nAudio\n ID : 1\n Format : AC-3\n Format/Info : Audio Coding 3\n Mode extension : CM (complete main)\n Codec ID : 2000\n Duration : 1h 35mn\n Bit rate mode : Constant\n Bit rate : 448 Kbps\n Channel(s) : 6 channels\n Channel positions : Front: L C R, Side: L R, LFE\n Sampling rate : 48.0 KHz\n Bit depth : 16 bits\n Stream size : 306 MiB (33%)\n Alignment : Aligned on interleaves\n Interleave, duration : 42 ms (1.00 video frame)\n Interleave, preload duration : 512 ms\n \n\nPlot:\n A simple man, Dr. Walter Newman, has high aspirations to cure all disease through genetic manipulation.\n  &lt;a href=&quot;\nhttp://www.pix2links.com/images/32541771230823150653.png&quot; rel=&quot;nofollow&quot; target=&quot;_NEW&quot;&gt;\nhttp://www.pix2links.com/images/32541771230823150653.png&lt;/a&gt;\n &lt;a href=&quot;\nhttp://www.pix2links.com/images/22090917343408178571.png&quot; rel=&quot;nofollow&quot; target=&quot;_NEW&quot;&gt;\nhttp://www.pix2links.com/images/22090917343408178571.png&lt;/a&gt;\n &lt;a href=&quot;\nhttp://www.pix2links.com/images/20419736005105766682.png&quot; rel=&quot;nofollow&quot; target=&quot;_NEW&quot;&gt;\nhttp://www.pix2links.com/images/20419736005105766682.png&lt;/a&gt;\n &lt;a href=&quot;\nhttp://www.pix2links.com/images/52933876050715281217.png&quot; rel=&quot;nofollow&quot; target=&quot;_NEW&quot;&gt;\nhttp://www.pix2links.com/images/52933876050715281217.png&lt;/a&gt;","torrent":{"xt":"urn:btih:8147c9b4f257f9b0302dd948888c5d523dd74816","amp;dn":"The.Tenant.2010.LIMITED.480p.BRRip.XviD.Ac3.Feel-Free","amp;tr":["udp%3A%2F%2Ftracker.openbittorrent.com%3A80","udp%3A%2F%2Fopen.demonii.com%3A1337","udp%3A%2F%2Ftracker.coppersurfer.tk%3A6969","udp%3A%2F%2Fexodus.desync.com%3A6969"],"infoHash":"8147c9b4f257f9b0302dd948888c5d523dd74816","infoHashBuffer":{"type":"Buffer","data":[129,71,201,180,242,87,249,176,48,45,217,72,136,140,93,82,61,215,72,22]},"announce":[],"urlList":[]}}